<mxfile host="Electron" modified="2023-09-17T09:41:44.635Z" agent="Mozilla/5.0 (Windows NT 10.0; Win64; x64) AppleWebKit/537.36 (KHTML, like Gecko) draw.io/21.6.8 Chrome/114.0.5735.289 Electron/25.5.0 Safari/537.36" etag="vSah9nV2PCcgAXI2_Cg-" version="21.6.8" type="device">
  <diagram name="Page-1" id="RLWIMaJ11JOtgV8sg24g">
    <mxGraphModel dx="757" dy="488" grid="1" gridSize="10" guides="1" tooltips="1" connect="1" arrows="1" fold="1" page="1" pageScale="1" pageWidth="850" pageHeight="1100" math="0" shadow="0">
      <root>
        <mxCell id="0" />
        <mxCell id="1" parent="0" />
        <mxCell id="hkHh-y2pcCfkuMu4-OPQ-35" value="&lt;font face=&quot;Computer Modern&quot;&gt;MMIO_Peripheral [0]&lt;/font&gt;" style="rounded=1;whiteSpace=wrap;html=1;fillColor=#ca9230;strokeColor=none;fontColor=#FFFFFF;" parent="1" vertex="1">
          <mxGeometry x="150" y="317" width="120" height="20" as="geometry" />
        </mxCell>
        <mxCell id="hkHh-y2pcCfkuMu4-OPQ-24" style="edgeStyle=orthogonalEdgeStyle;rounded=0;orthogonalLoop=1;jettySize=auto;html=1;exitX=1;exitY=0.5;exitDx=0;exitDy=0;entryX=0;entryY=0.5;entryDx=0;entryDy=0;" parent="1" source="hkHh-y2pcCfkuMu4-OPQ-1" target="hkHh-y2pcCfkuMu4-OPQ-18" edge="1">
          <mxGeometry relative="1" as="geometry" />
        </mxCell>
        <mxCell id="hkHh-y2pcCfkuMu4-OPQ-1" value="RAM" style="rounded=1;whiteSpace=wrap;html=1;shadow=1;glass=0;fontFamily=Computer Modern;" parent="1" vertex="1">
          <mxGeometry x="150" y="367" width="110" height="40" as="geometry" />
        </mxCell>
        <mxCell id="hkHh-y2pcCfkuMu4-OPQ-5" value="0x00000000" style="text;html=1;strokeColor=none;fillColor=none;align=center;verticalAlign=middle;whiteSpace=wrap;rounded=0;fontFamily=Computer Modern;" parent="1" vertex="1">
          <mxGeometry x="120" y="340" width="80" height="30" as="geometry" />
        </mxCell>
        <mxCell id="hkHh-y2pcCfkuMu4-OPQ-12" style="edgeStyle=orthogonalEdgeStyle;rounded=0;orthogonalLoop=1;jettySize=auto;html=1;exitX=1;exitY=0.5;exitDx=0;exitDy=0;entryX=0;entryY=0.5;entryDx=0;entryDy=0;" parent="1" edge="1">
          <mxGeometry relative="1" as="geometry">
            <mxPoint x="460" y="390" as="targetPoint" />
          </mxGeometry>
        </mxCell>
        <mxCell id="hkHh-y2pcCfkuMu4-OPQ-13" value="RAM_Size" style="text;html=1;strokeColor=none;fillColor=none;align=center;verticalAlign=middle;whiteSpace=wrap;rounded=0;fontFamily=Computer Modern;" parent="1" vertex="1">
          <mxGeometry x="170" y="411" width="70" height="30" as="geometry" />
        </mxCell>
        <mxCell id="hkHh-y2pcCfkuMu4-OPQ-14" value="" style="endArrow=none;html=1;rounded=0;entryX=0;entryY=1;entryDx=0;entryDy=0;" parent="1" target="hkHh-y2pcCfkuMu4-OPQ-1" edge="1">
          <mxGeometry width="50" height="50" relative="1" as="geometry">
            <mxPoint x="150" y="447" as="sourcePoint" />
            <mxPoint x="150" y="427" as="targetPoint" />
          </mxGeometry>
        </mxCell>
        <mxCell id="hkHh-y2pcCfkuMu4-OPQ-15" value="" style="endArrow=none;html=1;rounded=0;entryX=0;entryY=1;entryDx=0;entryDy=0;" parent="1" edge="1">
          <mxGeometry width="50" height="50" relative="1" as="geometry">
            <mxPoint x="260" y="447" as="sourcePoint" />
            <mxPoint x="260" y="407" as="targetPoint" />
          </mxGeometry>
        </mxCell>
        <mxCell id="hkHh-y2pcCfkuMu4-OPQ-16" value="" style="endArrow=classic;startArrow=classic;html=1;rounded=0;" parent="1" edge="1">
          <mxGeometry width="50" height="50" relative="1" as="geometry">
            <mxPoint x="150" y="437" as="sourcePoint" />
            <mxPoint x="260" y="437" as="targetPoint" />
          </mxGeometry>
        </mxCell>
        <mxCell id="hkHh-y2pcCfkuMu4-OPQ-31" style="edgeStyle=orthogonalEdgeStyle;rounded=0;orthogonalLoop=1;jettySize=auto;html=1;exitX=1;exitY=0.5;exitDx=0;exitDy=0;" parent="1" source="hkHh-y2pcCfkuMu4-OPQ-18" edge="1">
          <mxGeometry relative="1" as="geometry">
            <mxPoint x="430" y="387.1428571428571" as="targetPoint" />
          </mxGeometry>
        </mxCell>
        <mxCell id="hkHh-y2pcCfkuMu4-OPQ-18" value="GPIO" style="rounded=1;whiteSpace=wrap;html=1;shadow=1;glass=0;fontFamily=Computer Modern;" parent="1" vertex="1">
          <mxGeometry x="290" y="367" width="110" height="40" as="geometry" />
        </mxCell>
        <mxCell id="hkHh-y2pcCfkuMu4-OPQ-19" value="0x20200000" style="text;html=1;strokeColor=none;fillColor=none;align=center;verticalAlign=middle;whiteSpace=wrap;rounded=0;fontFamily=Computer Modern;" parent="1" vertex="1">
          <mxGeometry x="260" y="340" width="80" height="30" as="geometry" />
        </mxCell>
        <mxCell id="hkHh-y2pcCfkuMu4-OPQ-20" value="GPIO_Size" style="text;html=1;strokeColor=none;fillColor=none;align=center;verticalAlign=middle;whiteSpace=wrap;rounded=0;fontFamily=Computer Modern;" parent="1" vertex="1">
          <mxGeometry x="310" y="411" width="70" height="30" as="geometry" />
        </mxCell>
        <mxCell id="hkHh-y2pcCfkuMu4-OPQ-21" value="" style="endArrow=none;html=1;rounded=0;entryX=0;entryY=1;entryDx=0;entryDy=0;" parent="1" target="hkHh-y2pcCfkuMu4-OPQ-18" edge="1">
          <mxGeometry width="50" height="50" relative="1" as="geometry">
            <mxPoint x="290" y="447" as="sourcePoint" />
            <mxPoint x="290" y="427" as="targetPoint" />
          </mxGeometry>
        </mxCell>
        <mxCell id="hkHh-y2pcCfkuMu4-OPQ-22" value="" style="endArrow=none;html=1;rounded=0;entryX=0;entryY=1;entryDx=0;entryDy=0;" parent="1" edge="1">
          <mxGeometry width="50" height="50" relative="1" as="geometry">
            <mxPoint x="400" y="447" as="sourcePoint" />
            <mxPoint x="400" y="407" as="targetPoint" />
          </mxGeometry>
        </mxCell>
        <mxCell id="hkHh-y2pcCfkuMu4-OPQ-23" value="" style="endArrow=classic;startArrow=classic;html=1;rounded=0;" parent="1" edge="1">
          <mxGeometry width="50" height="50" relative="1" as="geometry">
            <mxPoint x="290" y="437" as="sourcePoint" />
            <mxPoint x="400" y="437" as="targetPoint" />
          </mxGeometry>
        </mxCell>
        <mxCell id="hkHh-y2pcCfkuMu4-OPQ-25" value="BSC_3" style="rounded=1;whiteSpace=wrap;html=1;shadow=1;glass=0;fontFamily=Computer Modern;" parent="1" vertex="1">
          <mxGeometry x="500" y="367" width="110" height="40" as="geometry" />
        </mxCell>
        <mxCell id="hkHh-y2pcCfkuMu4-OPQ-26" value="0x20805000" style="text;html=1;strokeColor=none;fillColor=none;align=center;verticalAlign=middle;whiteSpace=wrap;rounded=0;fontFamily=Computer Modern;" parent="1" vertex="1">
          <mxGeometry x="470" y="340" width="80" height="30" as="geometry" />
        </mxCell>
        <mxCell id="hkHh-y2pcCfkuMu4-OPQ-27" value="BSC_3_Size" style="text;html=1;strokeColor=none;fillColor=none;align=center;verticalAlign=middle;whiteSpace=wrap;rounded=0;fontFamily=Computer Modern;" parent="1" vertex="1">
          <mxGeometry x="520" y="411" width="70" height="30" as="geometry" />
        </mxCell>
        <mxCell id="hkHh-y2pcCfkuMu4-OPQ-28" value="" style="endArrow=none;html=1;rounded=0;entryX=0;entryY=1;entryDx=0;entryDy=0;" parent="1" target="hkHh-y2pcCfkuMu4-OPQ-25" edge="1">
          <mxGeometry width="50" height="50" relative="1" as="geometry">
            <mxPoint x="500" y="447" as="sourcePoint" />
            <mxPoint x="500" y="427" as="targetPoint" />
          </mxGeometry>
        </mxCell>
        <mxCell id="hkHh-y2pcCfkuMu4-OPQ-29" value="" style="endArrow=none;html=1;rounded=0;entryX=0;entryY=1;entryDx=0;entryDy=0;" parent="1" edge="1">
          <mxGeometry width="50" height="50" relative="1" as="geometry">
            <mxPoint x="610" y="447" as="sourcePoint" />
            <mxPoint x="610" y="407" as="targetPoint" />
          </mxGeometry>
        </mxCell>
        <mxCell id="hkHh-y2pcCfkuMu4-OPQ-30" value="" style="endArrow=classic;startArrow=classic;html=1;rounded=0;" parent="1" edge="1">
          <mxGeometry width="50" height="50" relative="1" as="geometry">
            <mxPoint x="500" y="437" as="sourcePoint" />
            <mxPoint x="610" y="437" as="targetPoint" />
          </mxGeometry>
        </mxCell>
        <mxCell id="hkHh-y2pcCfkuMu4-OPQ-33" style="edgeStyle=orthogonalEdgeStyle;rounded=0;orthogonalLoop=1;jettySize=auto;html=1;entryX=0;entryY=0.5;entryDx=0;entryDy=0;" parent="1" target="hkHh-y2pcCfkuMu4-OPQ-25" edge="1">
          <mxGeometry relative="1" as="geometry">
            <mxPoint x="480" y="400" as="targetPoint" />
            <mxPoint x="470" y="387" as="sourcePoint" />
            <Array as="points">
              <mxPoint x="470" y="387" />
            </Array>
          </mxGeometry>
        </mxCell>
        <mxCell id="hkHh-y2pcCfkuMu4-OPQ-34" value="" style="endArrow=none;dashed=1;html=1;dashPattern=1 3;strokeWidth=2;rounded=0;" parent="1" edge="1">
          <mxGeometry width="50" height="50" relative="1" as="geometry">
            <mxPoint x="432" y="387" as="sourcePoint" />
            <mxPoint x="472" y="387" as="targetPoint" />
            <Array as="points">
              <mxPoint x="452" y="387" />
            </Array>
          </mxGeometry>
        </mxCell>
        <mxCell id="hkHh-y2pcCfkuMu4-OPQ-37" value="&lt;font face=&quot;Computer Modern&quot;&gt;MMIO_Peripheral [1]&lt;/font&gt;" style="rounded=1;whiteSpace=wrap;html=1;fillColor=#ca9230;strokeColor=none;fontColor=#FFFFFF;" parent="1" vertex="1">
          <mxGeometry x="285" y="317" width="120" height="20" as="geometry" />
        </mxCell>
        <mxCell id="hkHh-y2pcCfkuMu4-OPQ-38" value="&lt;font face=&quot;Computer Modern&quot;&gt;MMIO_Peripheral [n]&lt;/font&gt;" style="rounded=1;whiteSpace=wrap;html=1;fillColor=#ca9230;strokeColor=none;fontColor=#FFFFFF;" parent="1" vertex="1">
          <mxGeometry x="495" y="317" width="120" height="20" as="geometry" />
        </mxCell>
      </root>
    </mxGraphModel>
  </diagram>
</mxfile>
